<svg width="26" height="26" fill="none" xmlns="http://www.w3.org/2000/svg"><path d="M11.937 19.182a1.127 1.127 0 01-.796-1.923L15.398 13 11.14 8.742a1.126 1.126 0 111.594-1.593l5.055 5.055a1.127 1.127 0 010 1.593l-5.055 5.055c-.22.22-.51.33-.797.33z" fill="#fff"/><path d="M24.978 7.94a12.963 12.963 0 00-2.785-4.133 12.948 12.948 0 00-4.132-2.785A12.923 12.923 0 0013 0a12.963 12.963 0 00-9.193 3.807A12.948 12.948 0 001.022 7.94 12.923 12.923 0 000 13a12.963 12.963 0 003.807 9.193 12.948 12.948 0 004.132 2.785A12.923 12.923 0 0013 26a12.961 12.961 0 009.193-3.807 12.948 12.948 0 002.785-4.132A12.924 12.924 0 0026 13c0-1.754-.344-3.456-1.022-5.06zM12.999 24.028C6.909 24.028 1.971 19.09 1.971 13c0-6.09 4.938-11.029 11.028-11.029 6.09 0 11.029 4.938 11.029 11.029 0 6.09-4.938 11.028-11.029 11.028z" fill="#fff"/></svg>