<svg width="159" height="119" fill="none" xmlns="http://www.w3.org/2000/svg"><path d="M135.407 88.154c-1.261 0-2.5-.492-3.427-1.425l-11.775-11.775H64.406c-7.244 0-13.138-5.893-13.138-13.138V13.138C51.268 5.893 57.162 0 64.406 0h80.836c7.245 0 13.138 5.893 13.138 13.138v48.678c0 7.245-5.893 13.138-13.138 13.138h-4.977v8.348a4.84 4.84 0 01-2.998 4.484 4.952 4.952 0 01-1.86.368zM64.412 4.558c-4.728 0-8.58 3.846-8.58 8.58v48.678c0 4.728 3.846 8.58 8.58 8.58h56.743c.605 0 1.188.237 1.612.667l12.442 12.442c.045.045.136.142.322.062.181-.073.181-.209.181-.271V72.669a2.28 2.28 0 012.28-2.28h7.256c4.728 0 8.579-3.845 8.579-8.579V13.132c0-4.728-3.846-8.58-8.579-8.58H64.412v.006z" fill="#2D5DA5"/><path d="M22.973 118.316a4.762 4.762 0 01-1.86-.373 4.841 4.841 0 01-2.998-4.485v-8.348h-4.977C5.893 105.11 0 99.217 0 91.972V43.294c0-7.245 5.893-13.138 13.138-13.138h38.91a2.28 2.28 0 010 4.559h-38.91c-4.728 0-8.58 3.845-8.58 8.58v48.677c0 4.728 3.846 8.58 8.58 8.58h7.256a2.276 2.276 0 012.28 2.279v10.627c0 .062 0 .198.18.271.181.074.277-.017.323-.062l12.442-12.442a2.272 2.272 0 011.612-.668h56.743c4.728 0 8.579-3.846 8.579-8.58V74.243a2.28 2.28 0 014.559 0v17.736c0 7.245-5.893 13.138-13.138 13.138H38.18l-11.775 11.775a4.873 4.873 0 01-3.433 1.425z" fill="#2D5DA5"/></svg>