<svg width="93" height="93" fill="none" xmlns="http://www.w3.org/2000/svg"><g clip-path="url(#clip0)" fill="#2B2B2B"><path d="M48.99 76.98l4.86-4.85v-6.86l18.69-18.69 3.44-3.43-3.44-3.43-18.69-18.71-4.86-4.85v60.82zm4.86-18.59V27.88l15.26 15.26-15.26 15.25zM39.29 21.01v44.25l-18.7-18.69L17.17 50l22.12 22.12 4.85 4.86V16.16l-4.85 4.85z"/><path d="M46.57 86.27l-39.7-39.7 39.7-39.71V0L0 46.57l46.57 46.56v-6.86zm0-86.27v6.87l39.7 39.7-39.7 39.7v6.86l46.56-46.56L46.57 0z"/></g><defs><clipPath id="clip0"><path fill="#fff" d="M0 0h93v93H0z"/></clipPath></defs></svg>