<svg width="108" height="109" fill="none" xmlns="http://www.w3.org/2000/svg"><path d="M46.088 100.231c-21.03 0-38.133-17.108-38.133-38.133 0-21.029 17.108-38.133 38.133-38.133 20.612 0 37.717 16.76 38.125 37.36a1.693 1.693 0 01-1.662 1.728 1.698 1.698 0 01-1.729-1.661c-.374-18.766-15.956-34.036-34.734-34.036-19.157 0-34.743 15.585-34.743 34.742 0 19.157 15.586 34.743 34.743 34.743a34.68 34.68 0 0017.916-4.968 1.693 1.693 0 012.326.576 1.692 1.692 0 01-.576 2.326 38.09 38.09 0 01-19.666 5.456z" fill="#232426"/><path d="M46.088 108.182C20.676 108.182 0 87.506 0 62.094c0-25.412 20.676-46.088 46.088-46.088 25.412 0 46.088 20.676 46.088 46.088 0 1.026-.034 2.065-.101 3.083a1.709 1.709 0 01-1.805 1.582 1.701 1.701 0 01-1.582-1.804c.063-.947.097-1.91.097-2.86 0-23.541-19.153-42.694-42.693-42.694S3.4 38.554 3.4 62.094s19.153 42.693 42.693 42.693c9.166 0 17.9-2.86 25.26-8.27a1.7 1.7 0 012.373.362 1.7 1.7 0 01-.361 2.372c-7.955 5.843-17.382 8.931-27.276 8.931zm10.125-96.286H35.967a1.693 1.693 0 01-1.696-1.695V1.695c0-.938.762-1.695 1.696-1.695h20.246c.938 0 1.695.757 1.695 1.695v8.506c0 .934-.76 1.695-1.695 1.695zm-18.551-3.39h16.856V3.39H37.662v5.115z" fill="#232426"/><path d="M50.366 19.401H41.81a1.696 1.696 0 01-1.696-1.695V10.2c0-.938.762-1.695 1.696-1.695h8.556c.938 0 1.695.761 1.695 1.695v7.505c0 .938-.757 1.695-1.695 1.695zm-6.861-3.39h5.161v-4.115h-5.161v4.114zM14.109 33.005c-.433 0-.867-.164-1.199-.496L6.112 25.71a1.699 1.699 0 010-2.398 1.7 1.7 0 012.398 0l6.798 6.798a1.7 1.7 0 010 2.398 1.687 1.687 0 01-1.199.496z" fill="#232426"/><path d="M3.92 29.615c-.433 0-.866-.164-1.198-.497a1.699 1.699 0 010-2.397l6.798-6.798c.66-.66 1.737-.66 2.397 0 .66.66.66 1.737 0 2.397L5.12 29.118a1.688 1.688 0 01-1.198.497zm74.193 3.39c-.433 0-.867-.164-1.199-.496a1.699 1.699 0 010-2.398l6.798-6.798a1.7 1.7 0 012.398 0 1.7 1.7 0 010 2.398l-6.798 6.798a1.688 1.688 0 01-1.2.496z" fill="#232426"/><path d="M88.301 29.615c-.433 0-.866-.164-1.198-.497l-6.798-6.798a1.699 1.699 0 010-2.397c.66-.66 1.737-.66 2.397 0L89.5 26.72c.66.66.66 1.737 0 2.397a1.681 1.681 0 01-1.199.497zM46.088 63.794a1.69 1.69 0 01-1.519-.942L34.444 42.42a1.695 1.695 0 013.037-1.506l9.154 18.471 8.468-7.307a1.698 1.698 0 012.216 2.57l-10.125 8.733c-.307.27-.702.413-1.106.413zm32.239 36.652c-11.374 0-20.625-9.255-20.625-20.625 0-11.375 9.255-20.625 20.625-20.625 11.375 0 20.626 9.254 20.626 20.625 0 11.37-9.255 20.625-20.626 20.625zm0-37.86c-9.502 0-17.234 7.732-17.234 17.235s7.732 17.234 17.234 17.234c9.503 0 17.235-7.731 17.235-17.234 0-9.503-7.732-17.235-17.235-17.235z" fill="#232426"/><path d="M106.306 108.182c-.433 0-.867-.164-1.199-.496L91.153 93.732a1.699 1.699 0 010-2.398 1.7 1.7 0 012.398 0l13.954 13.954a1.7 1.7 0 010 2.398 1.676 1.676 0 01-1.199.496z" fill="#232426"/></svg>