<svg width="122" height="130" fill="none" xmlns="http://www.w3.org/2000/svg"><path d="M113.053 129.753H8.936a2.28 2.28 0 01-2.28-2.279V58.647a2.28 2.28 0 012.28-2.279H52.07a2.28 2.28 0 010 4.558H11.215v64.263h99.553V60.921H69.319a2.28 2.28 0 010-4.559h43.728a2.28 2.28 0 012.279 2.28v68.827a2.268 2.268 0 01-2.273 2.284z" fill="#2D5DA5"/><path d="M119.715 60.921h-50.39a2.28 2.28 0 010-4.558h48.111V37.355H4.558v19.008h48.015a2.28 2.28 0 010 4.558H2.28A2.28 2.28 0 010 58.642V35.07a2.28 2.28 0 012.28-2.279h117.44a2.28 2.28 0 012.279 2.28v23.571a2.281 2.281 0 01-2.285 2.28z" fill="#2D5DA5"/><path d="M53.065 129.753a2.28 2.28 0 01-2.279-2.279V35.075a2.28 2.28 0 014.559 0v92.399a2.28 2.28 0 01-2.28 2.279zm15.865 0a2.28 2.28 0 01-2.28-2.279V35.075a2.28 2.28 0 014.558 0v92.399a2.28 2.28 0 01-2.279 2.279z" fill="#2D5DA5"/><path d="M61 37.349H43.926c-9.92 0-17.99-8.07-17.99-17.99V17.99c0-9.92 8.07-17.99 17.99-17.99h1.369c9.92 0 17.99 8.07 17.99 17.99v17.074A2.29 2.29 0 0161 37.349zM43.92 4.569c-7.403 0-13.426 6.024-13.426 13.427v1.368c0 7.403 6.023 13.426 13.426 13.426h14.795V17.996c0-7.403-6.023-13.426-13.426-13.426H43.92z" fill="#2D5DA5"/><path d="M78.074 37.349H61a2.28 2.28 0 01-2.28-2.28V17.997c0-9.92 8.071-17.99 17.99-17.99h1.37c9.92 0 17.99 8.07 17.99 17.99v1.369c-.012 9.92-8.076 17.984-17.996 17.984zm-14.795-4.558h14.795c7.403 0 13.426-6.023 13.426-13.426v-1.37c0-7.402-6.023-13.425-13.426-13.425h-1.369c-7.403 0-13.426 6.023-13.426 13.426V32.79z" fill="#2D5DA5"/></svg>