<svg width="106" height="76" fill="none" xmlns="http://www.w3.org/2000/svg"><path d="M49.905 75.74h-9.858c-.548 0-1.057-.29-1.338-.76-4.997-8.404-7.434-16.378-7.457-24.378 0-.412.162-.81.455-1.102a1.549 1.549 0 011.099-.455h10.85c.855 0 1.553.694 1.553 1.55a46.763 46.763 0 006.045 22.828 1.556 1.556 0 01-.011 1.55 1.546 1.546 0 01-1.338.767zm-8.968-3.111h6.385a49.905 49.905 0 01-5.19-20.48h-7.734c.297 6.743 2.394 13.312 6.54 20.48z" fill="#232426"/><path d="M56.698 52.149H21.105a4.785 4.785 0 01-4.781-4.781V24.952a4.785 4.785 0 014.78-4.78h35.594c.86 0 1.554.694 1.554 1.553v28.866a1.55 1.55 0 01-1.554 1.558zm-35.59-28.866a1.67 1.67 0 00-1.669 1.67v22.419c0 .921.748 1.67 1.67 1.67h34.04v-25.76h-34.04z" fill="#232426"/><path d="M95.808 67.362c-.19 0-.382-.034-.563-.104l-39.11-15.213a1.552 1.552 0 01-.99-1.45V21.729c0-.64.393-1.214.99-1.45l39.11-15.213a1.556 1.556 0 012.12 1.45v59.289c0 .512-.254.994-.678 1.283-.262.182-.57.274-.88.274zM58.256 49.535l35.998 14.003V8.79L58.256 22.793v26.742zm-40.374-2.449H4.78A4.785 4.785 0 010 42.306V30.018a4.785 4.785 0 014.78-4.78h13.102c.86 0 1.553.698 1.553 1.553V45.53c0 .863-.694 1.557-1.553 1.557zM4.78 28.35a1.67 1.67 0 00-1.67 1.67v12.287c0 .921.748 1.67 1.67 1.67h11.547v-15.63H4.78v.003z" fill="#232426"/><path d="M100.75 72.324h-1.403a5.1 5.1 0 01-5.093-5.097V5.097A5.102 5.102 0 0199.347 0h1.403a5.102 5.102 0 015.097 5.097V67.23a5.099 5.099 0 01-5.097 5.093zM99.347 3.111c-1.095 0-1.986.89-1.986 1.986V67.23c0 1.095.891 1.986 1.986 1.986h1.403c1.095 0 1.986-.89 1.986-1.986V5.097a1.988 1.988 0 00-1.986-1.986h-1.403z" fill="#232426"/></svg>