<svg width="134" height="98" fill="none" xmlns="http://www.w3.org/2000/svg"><path d="M111.5 87c-.83 0-1.5-.71-1.5-1.588V43.588c0-.879.674-1.588 1.5-1.588.83 0 1.5.713 1.5 1.588v41.824c0 .879-.67 1.588-1.5 1.588zm-97.932 0A1.568 1.568 0 0112 85.427V29.728C12 24.918 15.902 21 20.702 21h69.73A1.57 1.57 0 0192 22.573a1.57 1.57 0 01-1.568 1.572h-69.73c-3.07 0-5.567 2.505-5.567 5.58v55.699c0 .874-.7 1.576-1.567 1.576z" fill="#232426"/><path d="M113.133 98H11.871C5.326 98 0 92.453 0 85.635 0 84.73.705 84 1.57 84h44.168c1.453 0 2.79.885 3.405 2.256a.62.62 0 00.557.37h25.522c.238 0 .46-.147.561-.37C76.4 84.885 77.735 84 79.188 84h44.242c.869 0 1.57.734 1.57 1.635.004 6.818-5.322 12.365-11.867 12.365zM3.284 87.27c.744 4.237 4.313 7.46 8.59 7.46h101.263c4.278 0 7.846-3.223 8.59-7.46H79.192a.624.624 0 00-.56.37c-.617 1.372-1.953 2.256-3.406 2.256H49.704c-1.453 0-2.79-.884-3.405-2.256a.613.613 0 00-.561-.37H3.284zM111.5 45C99.094 45 89 34.906 89 22.5S99.094 0 111.5 0 134 10.094 134 22.5 123.906 45 111.5 45zm0-41.867c-10.677 0-19.367 8.686-19.367 19.367 0 10.677 8.686 19.367 19.367 19.367 10.677 0 19.367-8.686 19.367-19.367 0-10.68-8.686-19.367-19.367-19.367zM67.57 43a1.623 1.623 0 01-1.575-1.955l1.507-7.312-7.224-1.524a1.623 1.623 0 01-1.245-1.919 1.602 1.602 0 011.897-1.255l8.795 1.854a1.59 1.59 0 011.014.7c.234.358.314.8.226 1.219l-1.833 8.897A1.604 1.604 0 0167.57 43z" fill="#232426"/><path d="M33.568 58a1.567 1.567 0 01-1.312-.716 1.6 1.6 0 01.45-2.196L68.578 31.26a1.551 1.551 0 012.166.456 1.6 1.6 0 01-.45 2.196L34.422 57.74c-.264.173-.559.26-.854.26zm13.884 22H33.548A1.548 1.548 0 0132 78.452V64.548c0-.857.695-1.548 1.548-1.548h13.904c.857 0 1.548.695 1.548 1.548v13.904A1.546 1.546 0 0147.452 80zm-12.356-3.096h10.808V66.096H35.096v10.808zM68.452 80H54.548A1.558 1.558 0 0153 78.433V53.567C53 52.7 53.695 52 54.548 52h13.904c.857 0 1.548.7 1.548 1.567v24.866c0 .863-.691 1.567-1.548 1.567zm-12.356-3.134h10.808V55.134H56.096v21.732zM90.361 80H75.639C74.732 80 74 79.305 74 78.453V42.547c0-.856.736-1.547 1.639-1.547h14.722c.907 0 1.639.691 1.639 1.547v35.906c0 .852-.732 1.547-1.639 1.547zm-13.083-3.095h11.444v-32.81H77.278v32.81z" fill="#232426"/><path d="M110.266 34h2.495v-4.688h5.341v-1.47h-5.341v-1.997h5.341v-1.498h-4.636L120 14h-2.874l-3.199 5.603a86.363 86.363 0 01-2.332 4.244h-.136c-.867-1.58-1.382-2.496-2.331-4.244L105.901 14H103l6.561 10.347h-4.663v1.498h5.368v1.997h-5.368v1.47h5.368V34z" fill="#000"/></svg>