<svg width="60" height="48" fill="none" xmlns="http://www.w3.org/2000/svg"><path d="M52.591 40.547h3.792a.817.817 0 00.819-.72c.052-.49.082-.987.082-1.49 0-6.854-2.55-15.308-10.11-17.7 2.99-1.606 4.295-4.757 4.295-8.39C51.47 6.99 47.938 2 42.681 2c-.684 0-1.352.12-1.996.331M19.01 2.49c-.767-.303-1.573-.487-2.403-.487-5.258 0-8.789 4.99-8.789 10.248 0 3.596 1.266 6.725 4.209 8.344C4.042 22.918 2 31.44 2 38.337c0 .503.03.996.083 1.484a.827.827 0 00.827.726H7.6m38.646 4.773c.165-.163.257-.254.423-.414.046-8.019-2.906-18.003-11.783-20.81 4.23-2.272 5.744-7.204 4.901-12.563-.733-4.659-4.353-8.472-9.043-8.981-6.713-.73-11.464 5.275-11.464 11.765 0 4.193 1.597 7.838 5.03 9.726-9.46 2.753-11.762 12.96-11.685 21.069.082.082.131.128.214.208h33.407z" stroke="#fff" stroke-width="4" stroke-miterlimit="10" stroke-linecap="round" stroke-linejoin="round"/></svg>