<svg width="55" height="98" fill="none" xmlns="http://www.w3.org/2000/svg"><path fill-rule="evenodd" clip-rule="evenodd" d="M9.387 1.533l19.251 18.204.032.031a1.8 1.8 0 01.533 1.277v.001l.052 74.277c0 .478-.19.937-.53 1.276a1.82 1.82 0 01-1.284.528h-.13a5.486 5.486 0 01-4.022-1.778L1.477 71.914A5.505 5.505 0 010 68.163V5.534C0 .68 5.848-1.813 9.387 1.533zM4.14 69.465L25.626 92.55l-.05-70.732L6.886 4.145c-1.228-1.161-3.258-.296-3.258 1.39v62.628c0 .483.183.948.513 1.302z" fill="#000"/><path d="M26.97 21.597L46.307 3.374c2.394-2.256 6.352-.575 6.352 2.698v62.695c0 .938-.358 1.841-1 2.53l-21.91 23.46a3.69 3.69 0 01-2.73 1.2h-.105l.053-74.356.001-.004z" fill="#000"/><path fill-rule="evenodd" clip-rule="evenodd" d="M51.372 5.534c0-1.685-2.03-2.55-3.258-1.389L29.424 21.82l-.05 70.731L50.86 69.465c.33-.354.513-.82.513-1.302V5.534zm-5.758-4.001C49.151-1.813 55 .679 55 5.534v62.629c0 1.39-.528 2.73-1.478 3.75L31.712 95.35a5.485 5.485 0 01-4.023 1.778h-.13a1.82 1.82 0 01-1.284-.528 1.798 1.798 0 01-.53-1.276l.052-74.278c0-.28.066-.555.192-.805v-.002l.002-.004.004-.006.005-.01.037-.068.002-.003c.021-.038.118-.207.291-.379a1.6 1.6 0 01.033-.031l19.25-18.204z" fill="#000"/></svg>