<svg width="197" height="128" fill="none" xmlns="http://www.w3.org/2000/svg"><path d="M98.503 51.47c-8.38 0-15.202-6.822-15.202-15.203s6.821-15.203 15.202-15.203c8.382 0 15.203 6.822 15.203 15.203s-6.821 15.202-15.203 15.202zm0-25.253c-5.536 0-10.043 4.507-10.043 10.05 0 5.543 4.507 10.05 10.043 10.05 5.537 0 10.044-4.507 10.044-10.05 0-5.543-4.501-10.05-10.044-10.05zm11.348 101.777H87.149a10.757 10.757 0 01-8.394-4.028c-1.675 1.874-3.983 3.139-6.572 3.382-3.906.371-7.627-1.464-9.73-4.794-1.067-1.688-1.63-3.587-1.63-5.505v-18.75a2.577 2.577 0 015.153 0v18.75c0 .953.281 1.88.83 2.756 1.062 1.675 2.929 2.602 4.885 2.416 2.621-.249 4.68-2.666 4.68-5.504a2.577 2.577 0 012.576-2.577 2.582 2.582 0 012.576 2.577v.498a5.634 5.634 0 005.626 5.626h22.702c3.1 0 5.626-2.525 5.626-5.626v-.473a2.575 2.575 0 012.57-2.576h.006a2.58 2.58 0 012.576 2.57c.013 2.826 2.065 5.236 4.674 5.485a5.192 5.192 0 004.878-2.404c.556-.869.837-1.802.837-2.761V91.132a2.577 2.577 0 015.153 0v25.917c0 1.931-.569 3.849-1.643 5.53-2.11 3.312-5.818 5.14-9.718 4.769-2.582-.249-4.89-1.508-6.565-3.382a10.737 10.737 0 01-8.394 4.028zm15.042-61.302a2.574 2.574 0 01-2.576-2.564c-.128-.703-2.461-2.48-5.012-2.48H79.701c-2.474 0-4.8 1.751-4.941 2.442a2.557 2.557 0 01-2.577 2.557c-1.425 0-2.576-1.17-2.576-2.596 0-4.258 5.428-7.563 10.094-7.563h37.604c4.699 0 10.165 3.331 10.165 7.62a2.575 2.575 0 01-2.577 2.584z" fill="#2D5DA5"/><path d="M78.947 118.525a2.573 2.573 0 01-2.576-2.576V84.732a2.577 2.577 0 015.153 0v31.217a2.573 2.573 0 01-2.577 2.576zm39.112-.191a2.577 2.577 0 01-2.576-2.576V86.561a2.577 2.577 0 015.153 0v29.197a2.58 2.58 0 01-2.577 2.576zM32.994 71.07c-7.69 0-13.956-6.259-13.956-13.956 0-7.697 6.259-13.956 13.956-13.956 7.697 0 13.956 6.259 13.956 13.956 0 7.69-6.265 13.956-13.956 13.956zm0-22.759c-4.852 0-8.796 3.944-8.796 8.797 0 4.852 3.944 8.797 8.796 8.797 4.852 0 8.797-3.945 8.797-8.797 0-4.853-3.944-8.797-8.797-8.797zm22.203 79.682H10.78c-5.947 0-10.78-4.839-10.78-10.778V91.131c0-1.822.32-3.63.946-5.389 2.276-6.374 8.343-10.657 15.1-10.657h33.89c6.757 0 12.824 4.283 15.1 10.65.626 1.752.946 3.568.946 5.39v26.083c0 5.952-4.84 10.785-10.785 10.785zm-39.15-47.749c-4.584 0-8.701 2.909-10.249 7.23a10.861 10.861 0 00-.645 3.657v26.084c0 3.1 2.525 5.626 5.626 5.626h44.418c3.1 0 5.626-2.526 5.626-5.626V91.131c0-1.234-.218-2.461-.646-3.656-1.547-4.328-5.664-7.237-10.248-7.237H16.046v.006z" fill="#2D5DA5"/><path d="M16.047 127.348a2.578 2.578 0 01-2.577-2.577V98.675a2.577 2.577 0 015.153 0v26.103c0 1.419-1.15 2.57-2.576 2.57zm33.889.019a2.577 2.577 0 01-2.577-2.577V98.675a2.577 2.577 0 012.577-2.576 2.581 2.581 0 012.576 2.576v26.115c0 1.42-1.15 2.577-2.576 2.577zM164.012 71.07c-7.691 0-13.956-6.259-13.956-13.956 0-7.697 6.259-13.956 13.956-13.956 7.697 0 13.956 6.259 13.956 13.956 0 7.69-6.259 13.956-13.956 13.956zm0-22.759c-4.852 0-8.797 3.944-8.797 8.797 0 4.852 3.945 8.797 8.797 8.797s8.797-3.945 8.797-8.797c0-4.853-3.945-8.797-8.797-8.797zm22.209 79.682h-44.418c-5.946 0-10.779-4.839-10.779-10.778V91.694a2.577 2.577 0 015.153 0v25.521c0 3.1 2.525 5.626 5.626 5.626h44.418a5.635 5.635 0 005.626-5.626V91.131c0-1.227-.217-2.461-.645-3.656-1.548-4.328-5.665-7.237-10.242-7.237h-33.889c-1.471 0-2.89.287-4.226.85a2.579 2.579 0 01-3.382-1.368 2.572 2.572 0 011.368-3.376 15.879 15.879 0 016.233-1.259h33.89c6.751 0 12.824 4.283 15.1 10.65.626 1.759.946 3.574.946 5.39v26.083c0 5.952-4.833 10.785-10.779 10.785z" fill="#2D5DA5"/><path d="M147.071 127.347a2.577 2.577 0 01-2.577-2.576v-21.142a2.576 2.576 0 015.153 0v21.142a2.577 2.577 0 01-2.576 2.576zm33.889.02a2.576 2.576 0 01-2.576-2.577V98.675a2.577 2.577 0 015.152 0v26.115a2.58 2.58 0 01-2.576 2.577zM98.765 92.149c-25.406 0-46.074-20.669-46.074-46.075C52.691 20.67 73.359 0 98.765 0s46.075 20.669 46.075 46.074c0 25.4-20.669 46.075-46.075 46.075zm0-86.996c-22.56 0-40.921 18.354-40.921 40.921 0 22.561 18.36 40.922 40.921 40.922s40.922-18.355 40.922-40.922c0-22.567-18.361-40.921-40.922-40.921z" fill="#2D5DA5"/><path d="M161.065 117.497a9.048 9.048 0 01-6.451-2.672L122.65 82.86a2.582 2.582 0 01-.742-2.097 2.592 2.592 0 011.17-1.893 27.719 27.719 0 008.304-8.215l.192-.294a2.574 2.574 0 011.892-1.144 2.585 2.585 0 012.085.742l31.964 31.965c3.561 3.56 3.561 9.346 0 12.907a9.052 9.052 0 01-6.45 2.666zm-32.611-36.12l29.811 29.804c1.502 1.502 4.117 1.502 5.613 0a3.974 3.974 0 000-5.613l-29.811-29.811a32.875 32.875 0 01-5.613 5.62z" fill="#2D5DA5"/></svg>