<svg width="126" height="126" fill="none" xmlns="http://www.w3.org/2000/svg"><path d="M93 93c16.569-16.569 16.569-43.431 0-60-16.569-16.569-43.431-16.569-60 0-16.569 16.569-16.569 43.431 0 60 16.569 16.569 43.431 16.569 60 0z" stroke="#232426" stroke-width="4" stroke-miterlimit="10" stroke-linecap="round" stroke-linejoin="round"/><path d="M62.383 104.565c-19.341-3.946-26.548-21.068-25.859-41.566.71-21.27 15.134-36.403 31.863-41.562" stroke="#232426" stroke-width="4" stroke-miterlimit="10" stroke-linecap="round" stroke-linejoin="round"/><path d="M56.525 21.231C76.385 24.77 91.151 41.866 91.463 63c.332 22.567-8.002 37.001-26.825 41.34" stroke="#232426" stroke-width="4" stroke-miterlimit="10" stroke-linecap="round" stroke-linejoin="round"/><path d="M97.724 38.605c-7.675 10.906-20.363 16.02-34.717 16.02-14.348 0-27.031-5.114-34.711-16.015m76.061 20.136c-6.538 17.122-22.185 23.237-41.35 23.237-19.039 0-35.3-6.82-41.214-23.237m41.214-38.174v84.849" stroke="#232426" stroke-width="4" stroke-miterlimit="10" stroke-linecap="round" stroke-linejoin="round"/></svg>