<svg width="94" height="122" fill="none" xmlns="http://www.w3.org/2000/svg"><g clip-path="url(#clip0)" fill="#1D2A73"><path d="M48.99 76.98l4.86-4.85v-6.86l18.69-18.69 3.44-3.43-3.44-3.43-18.69-18.71-4.86-4.85v60.82zm4.86-18.59V27.88l15.26 15.26-15.26 15.25zM39.29 21.01v44.25l-18.7-18.69L17.17 50l22.12 22.12 4.85 4.86V16.16l-4.85 4.85z"/><path d="M46.57 86.27l-39.7-39.7 39.7-39.71V0L0 46.57l46.57 46.56v-6.86zm0-86.27v6.87l39.7 39.7-39.7 39.7v6.86l46.56-46.56L46.57 0zM19.46 105.66v-.45h8.67v.45h-.53c-.48 0-.87.08-1.16.25-.2.11-.36.31-.48.58-.09.19-.13.7-.13 1.52v7.98c0 1.56-.15 2.7-.47 3.41-.31.71-.87 1.3-1.67 1.78-.79.48-1.76.71-2.88.71-1.37 0-2.48-.36-3.33-1.08-.84-.72-1.27-1.52-1.27-2.39 0-.56.17-1.01.52-1.37.35-.35.77-.52 1.27-.52.49 0 .9.16 1.23.47.33.31.5.7.5 1.15 0 .22-.03.42-.08.59-.03.08-.16.28-.38.61-.22.33-.33.56-.33.69 0 .21.1.39.31.54.31.23.7.34 1.19.34.35 0 .63-.09.86-.26.22-.18.38-.45.47-.83.09-.37.14-1.41.14-3.11V108c0-.83-.05-1.36-.14-1.57-.09-.21-.27-.39-.54-.55-.27-.16-.63-.23-1.09-.23h-.68v.01zm16.94 8.47v4.52c0 .88.06 1.44.16 1.66.11.23.3.41.58.55.28.14.79.21 1.52.21v.45h-8.28v-.45c.75 0 1.26-.07 1.53-.21.27-.14.46-.32.56-.55.11-.23.16-.78.16-1.66v-10.58c0-.88-.05-1.44-.16-1.66-.11-.23-.3-.41-.57-.55-.27-.13-.78-.2-1.53-.2v-.45h7.11c2.34 0 4.02.42 5.04 1.25 1.02.83 1.53 1.88 1.53 3.13 0 1.06-.33 1.96-.99 2.72-.66.75-1.56 1.27-2.72 1.54-.77.19-2.08.28-3.94.28zm0-7.98v7.05c.27.02.47.02.6.02.97 0 1.73-.29 2.26-.87.53-.58.79-1.48.79-2.7 0-1.21-.26-2.1-.79-2.66s-1.32-.84-2.37-.84h-.49zm19.47 6.72c1.55.36 2.64.8 3.26 1.31.9.73 1.35 1.68 1.35 2.84 0 1.23-.5 2.24-1.48 3.04-1.21.97-2.97 1.45-5.28 1.45h-8.28v-.45c.75 0 1.26-.07 1.53-.21.27-.14.46-.32.57-.55.11-.23.16-.78.16-1.66v-10.58c0-.88-.06-1.44-.16-1.67-.11-.23-.3-.41-.57-.55-.27-.14-.78-.2-1.53-.2v-.45h7.82c1.87 0 3.19.17 3.97.5.78.33 1.39.83 1.84 1.49.45.66.67 1.36.67 2.11 0 .79-.28 1.48-.85 2.1-.58.63-1.58 1.12-3.02 1.48zm-4.37.62v5.23l-.01.6c0 .43.11.76.33.98.22.22.55.33.98.33.64 0 1.23-.14 1.77-.43.54-.28.96-.7 1.24-1.24.29-.54.43-1.14.43-1.81 0-.76-.18-1.44-.53-2.05-.35-.61-.84-1.03-1.45-1.27s-1.54-.35-2.76-.34zm0-.94c1.14 0 1.98-.13 2.52-.39.54-.25.96-.62 1.25-1.08.29-.47.43-1.06.43-1.78s-.14-1.31-.43-1.78c-.29-.46-.69-.81-1.22-1.05s-1.38-.36-2.55-.35v6.43zm20.09 4.33h-5.76l-.68 1.59c-.22.53-.34.97-.34 1.31 0 .46.18.79.55 1.01.22.13.75.23 1.6.29v.45h-5.42v-.45c.58-.09 1.06-.33 1.44-.73.38-.4.84-1.22 1.4-2.46l5.83-13.01h.23l5.88 13.37c.56 1.27 1.02 2.06 1.38 2.39.27.25.66.39 1.16.43v.45h-7.89v-.45h.33c.63 0 1.08-.09 1.34-.27.17-.13.26-.31.26-.55 0-.14-.02-.29-.07-.45-.02-.07-.14-.37-.36-.9l-.88-2.02zm-.41-.89l-2.43-5.62-2.5 5.62h4.93z"/></g><defs><clipPath id="clip0"><path fill="#fff" d="M0 0h93.13v121.89H0z"/></clipPath></defs></svg>