<svg width="106" height="76" viewBox="0 0 106 76" fill="none" xmlns="http://www.w3.org/2000/svg">
<path d="M49.9049 75.74H40.0465C39.499 75.74 38.9901 75.4508 38.7087 74.9804C33.712 66.5756 31.2753 58.6025 31.2522 50.6025C31.2522 50.19 31.4141 49.7929 31.7071 49.4999C32.0001 49.2068 32.3934 49.0449 32.806 49.0449H43.6551C44.511 49.0449 45.2089 49.7389 45.2089 50.5948C45.2281 58.564 47.3217 66.4599 51.2543 73.4229C51.528 73.9048 51.5203 74.4947 51.2427 74.9728C50.969 75.447 50.4562 75.74 49.9049 75.74ZM40.9371 72.6286H47.3216C44.1525 66.2556 42.3751 59.2503 42.1322 52.1485H34.3982C34.6951 58.8917 36.7925 65.4614 40.9371 72.6286Z" fill="#232426"/>
<path d="M56.6981 52.1488H21.1047C18.4676 52.1488 16.324 50.0051 16.324 47.368V24.9525C16.324 22.3154 18.4676 20.1718 21.1047 20.1718H56.6981C57.5579 20.1718 58.2519 20.8657 58.2519 21.7255V50.5912C58.2557 51.4548 57.5579 52.1488 56.6981 52.1488ZM21.1085 23.2831C20.1871 23.2831 19.4392 24.031 19.4392 24.9525V47.3719C19.4392 48.2933 20.1871 49.0413 21.1085 49.0413H55.1482V23.2831H21.1085Z" fill="#232426"/>
<path d="M95.8077 67.3621C95.6188 67.3621 95.4261 67.3275 95.2448 67.2581L56.1353 52.0445C55.5377 51.8132 55.1444 51.2387 55.1444 50.5948V21.7292C55.1444 21.0891 55.5377 20.5147 56.1353 20.2795L95.2448 5.06595C95.7229 4.88089 96.2627 4.94258 96.6868 5.23173C97.1109 5.52089 97.3653 6.00283 97.3653 6.5156V65.8046C97.3653 66.3173 97.1109 66.7993 96.6868 67.0884C96.4246 67.2696 96.1162 67.3621 95.8077 67.3621ZM58.2558 49.5346L94.254 63.5375V8.7903L58.2558 22.7933V49.5346Z" fill="#232426"/>
<path d="M17.8816 47.0864H4.7808C2.14368 47.0864 0 44.9428 0 42.3057V30.0184C0 27.3813 2.14368 25.2377 4.7808 25.2377H17.8816C18.7413 25.2377 19.4353 25.9355 19.4353 26.7914V45.5288C19.4353 46.3924 18.7413 47.0864 17.8816 47.0864ZM4.7808 28.349C3.85935 28.349 3.11137 29.097 3.11137 30.0184V42.3057C3.11137 43.2271 3.85935 43.9751 4.7808 43.9751H16.3278V28.3452H4.7808V28.349Z" fill="#232426"/>
<path d="M100.75 72.3242H99.347C96.5364 72.3242 94.2539 70.0379 94.2539 67.2273V5.09688C94.2539 2.28626 96.5403 0 99.347 0H100.75C103.561 0 105.847 2.28626 105.847 5.09688V67.2312C105.847 70.0418 103.561 72.3242 100.75 72.3242ZM99.347 3.11134C98.2521 3.11134 97.3614 4.00194 97.3614 5.09688V67.2312C97.3614 68.3261 98.2521 69.2167 99.347 69.2167H100.75C101.845 69.2167 102.736 68.3261 102.736 67.2312V5.09688C102.736 4.00194 101.845 3.11134 100.75 3.11134H99.347Z" fill="#232426"/>
</svg>
