<svg width="60" height="48" viewBox="0 0 60 48" fill="none" xmlns="http://www.w3.org/2000/svg">
<path d="M52.5912 40.5472H56.383C56.7969 40.5472 57.1586 40.2407 57.2015 39.8269C57.2536 39.3364 57.2842 38.8398 57.2842 38.3371C57.2842 31.4829 54.7339 23.0286 47.1746 20.6376C50.1634 19.0313 51.4692 15.8801 51.4692 12.2476C51.4692 6.99046 47.9379 2 42.6807 2C41.9972 2 41.3289 2.11957 40.6852 2.33109" stroke="white" stroke-width="4" stroke-miterlimit="10" stroke-linecap="round" stroke-linejoin="round"/>
<path d="M19.0098 2.4906C18.2435 2.18712 17.4373 2.00317 16.6066 2.00317C11.3494 2.00317 7.81809 6.99364 7.81809 12.2508C7.81809 15.8465 9.08409 18.9762 12.0269 20.5947C4.04153 22.9183 2 31.4401 2 38.3372C2 38.8399 2.03066 39.3334 2.08277 39.8208C2.12875 40.2377 2.49045 40.5473 2.91041 40.5473H7.60046" stroke="white" stroke-width="4" stroke-miterlimit="10" stroke-linecap="round" stroke-linejoin="round"/>
<path d="M46.2458 45.32C46.4113 45.1575 46.5032 45.0656 46.6688 44.9062C46.7148 36.8871 43.7628 26.9032 34.8855 24.0953C39.1157 21.8238 40.63 16.8916 39.787 11.5334C39.0544 6.87397 35.4342 3.06062 30.7441 2.55176C24.0309 1.8222 19.2796 7.82729 19.2796 14.3167C19.2796 18.5102 20.8766 22.1549 24.3099 24.0432C14.8501 26.7959 12.548 37.0036 12.6246 45.1116C12.7074 45.1943 12.7564 45.2403 12.8392 45.32H46.2458Z" stroke="white" stroke-width="4" stroke-miterlimit="10" stroke-linecap="round" stroke-linejoin="round"/>
</svg>
