<svg width="126" height="126" viewBox="0 0 126 126" fill="none" xmlns="http://www.w3.org/2000/svg">
<path d="M93 93C109.569 76.4315 109.569 49.5685 93 33C76.4314 16.4315 49.5685 16.4315 33 33C16.4314 49.5686 16.4315 76.4315 33 93C49.5685 109.569 76.4314 109.569 93 93Z" stroke="#232426" stroke-width="4" stroke-miterlimit="10" stroke-linecap="round" stroke-linejoin="round"/>
<path d="M62.3831 104.565C43.0419 100.619 35.8349 83.4974 36.5244 62.9987C37.2341 41.7299 51.6582 26.5962 68.3873 21.4375" stroke="#232426" stroke-width="4" stroke-miterlimit="10" stroke-linecap="round" stroke-linejoin="round"/>
<path d="M56.525 21.2313C76.3846 24.7694 91.1509 41.866 91.4629 62.9988C91.7951 85.5661 83.4608 100 64.638 104.339" stroke="#232426" stroke-width="4" stroke-miterlimit="10" stroke-linecap="round" stroke-linejoin="round"/>
<path d="M97.7239 38.6046C90.0489 49.5108 77.361 54.6241 63.0074 54.6241C48.6587 54.6241 35.976 49.5108 28.2959 38.6097" stroke="#232426" stroke-width="4" stroke-miterlimit="10" stroke-linecap="round" stroke-linejoin="round"/>
<path d="M104.357 58.7461C97.8193 75.8678 82.1722 81.9827 63.0072 81.9827C43.968 81.9827 27.7069 75.1632 21.7933 58.7461" stroke="#232426" stroke-width="4" stroke-miterlimit="10" stroke-linecap="round" stroke-linejoin="round"/>
<path d="M63.0073 20.572V105.421" stroke="#232426" stroke-width="4" stroke-miterlimit="10" stroke-linecap="round" stroke-linejoin="round"/>
</svg>
