<svg width="159" height="119" viewBox="0 0 159 119" fill="none" xmlns="http://www.w3.org/2000/svg">
<path d="M135.407 88.1541C134.146 88.1541 132.907 87.662 131.98 86.7288L120.205 74.9538H64.4064C57.1616 74.9538 51.2684 69.0607 51.2684 61.8159V13.138C51.2684 5.89314 57.1616 0 64.4064 0H145.242C152.487 0 158.38 5.89314 158.38 13.138V61.8159C158.38 69.0607 152.487 74.9538 145.242 74.9538H140.265V83.3015C140.265 85.2697 139.089 87.0342 137.267 87.7864C136.668 88.0296 136.035 88.1541 135.407 88.1541ZM64.4119 4.55842C59.6838 4.55842 55.8324 8.40423 55.8324 13.138V61.8159C55.8324 66.544 59.6782 70.3954 64.4119 70.3954H121.155C121.76 70.3954 122.343 70.633 122.767 71.0628L135.209 83.5051C135.254 83.5504 135.345 83.6466 135.531 83.5674C135.712 83.4939 135.712 83.3581 135.712 83.2959V72.669C135.712 71.4078 136.736 70.3898 137.992 70.3898H145.248C149.976 70.3898 153.827 66.544 153.827 61.8102V13.1323C153.827 8.40423 149.981 4.55276 145.248 4.55276H64.4119V4.55842Z" fill="#2D5DA5"/>
<path d="M22.9732 118.316C22.3454 118.316 21.712 118.197 21.1125 117.943C19.2913 117.19 18.1151 115.426 18.1151 113.458V105.11H13.138C5.89314 105.11 0 99.217 0 91.9721V43.2942C0 36.0494 5.89314 30.1562 13.138 30.1562H52.0488C53.31 30.1562 54.3279 31.1799 54.3279 32.4354C54.3279 33.691 53.3043 34.7147 52.0488 34.7147H13.138C8.40989 34.7147 4.55846 38.5605 4.55846 43.2942V91.9721C4.55846 96.7002 8.40423 100.552 13.138 100.552H20.3942C21.6554 100.552 22.6736 101.57 22.6736 102.831V113.458C22.6736 113.52 22.6735 113.656 22.8544 113.729C23.0354 113.803 23.1315 113.712 23.1767 113.667L35.6191 101.225C36.0489 100.795 36.6258 100.557 37.231 100.557H93.9738C98.7019 100.557 102.553 96.7115 102.553 91.9778V74.2418C102.553 72.9806 103.577 71.9625 104.833 71.9625C106.094 71.9625 107.112 72.9862 107.112 74.2418V91.9778C107.112 99.2226 101.219 105.116 93.9738 105.116H38.1812L26.406 116.891C25.4729 117.818 24.2344 118.316 22.9732 118.316Z" fill="#2D5DA5"/>
</svg>
