<svg width="108" height="109" viewBox="0 0 108 109" fill="none" xmlns="http://www.w3.org/2000/svg">
<path d="M46.0879 100.231C25.0589 100.231 7.95471 83.1231 7.95471 62.0983C7.95471 41.0694 25.0631 23.9652 46.0879 23.9652C66.7004 23.9652 83.8045 40.7244 84.2125 61.3243C84.2293 62.2624 83.489 63.0364 82.5509 63.0532C81.6255 63.0743 80.8389 62.3297 80.8221 61.3916C80.4477 42.6258 64.8663 27.3557 46.0879 27.3557C26.9309 27.3557 11.3453 42.9413 11.3453 62.0983C11.3453 81.2553 26.9309 96.8409 46.0879 96.8409C52.4189 96.8409 58.611 95.1246 64.0038 91.8728C64.8031 91.3891 65.8464 91.6457 66.3301 92.4492C66.8139 93.2526 66.5573 94.2917 65.7539 94.7754C59.8351 98.3426 53.0372 100.231 46.0879 100.231Z" fill="#232426"/>
<path d="M46.0879 108.182C20.6756 108.182 0 87.5063 0 62.0941C0 36.6818 20.6756 16.0062 46.0879 16.0062C71.5001 16.0062 92.1757 36.6818 92.1757 62.0941C92.1757 63.1205 92.1421 64.1595 92.0748 65.1775C92.0117 66.1114 91.1914 66.8181 90.2701 66.7592C89.3363 66.6961 88.6295 65.8884 88.6884 64.9546C88.7515 64.0081 88.7852 63.0448 88.7852 62.0941C88.7852 38.5538 69.6324 19.401 46.0921 19.401C22.5518 19.401 3.39899 38.5538 3.39899 62.0941C3.39899 85.6344 22.5518 104.787 46.0921 104.787C55.2583 104.787 63.9913 101.927 71.3529 96.5169C72.1059 95.9616 73.1701 96.1257 73.7254 96.8787C74.2807 97.6317 74.1166 98.696 73.3636 99.2512C65.4089 105.094 55.9819 108.182 46.0879 108.182Z" fill="#232426"/>
<path d="M56.2132 11.8964H35.9666C35.0286 11.8964 34.2714 11.1392 34.2714 10.2011V1.69527C34.2714 0.757193 35.0328 0 35.9666 0H56.2132C57.1513 0 57.9084 0.757193 57.9084 1.69527V10.2011C57.9084 11.135 57.1471 11.8964 56.2132 11.8964ZM37.6619 8.50581H54.5179V3.39054H37.6619V8.50581Z" fill="#232426"/>
<path d="M50.366 19.401H41.8097C40.8716 19.401 40.1145 18.6396 40.1145 17.7057V10.2011C40.1145 9.26299 40.8758 8.5058 41.8097 8.5058H50.366C51.3041 8.5058 52.0613 9.2672 52.0613 10.2011V17.7057C52.0613 18.6438 51.3041 19.401 50.366 19.401ZM43.505 16.0104H48.6665V11.8963H43.505V16.0104Z" fill="#232426"/>
<path d="M14.109 33.0052C13.6757 33.0052 13.2424 32.8412 12.91 32.5088L6.11215 25.7109C5.45171 25.0505 5.45171 23.9736 6.11215 23.3131C6.77259 22.6527 7.84947 22.6527 8.50991 23.3131L15.3078 30.1111C15.9682 30.7715 15.9682 31.8484 15.3078 32.5088C14.9755 32.8412 14.5422 33.0052 14.109 33.0052Z" fill="#232426"/>
<path d="M3.92058 29.6147C3.4873 29.6147 3.05397 29.4506 2.72165 29.1183C2.06121 28.4578 2.06121 27.3809 2.72165 26.7205L9.51963 19.9226C10.1801 19.2621 11.2569 19.2621 11.9174 19.9226C12.5778 20.583 12.5778 21.6599 11.9174 22.3204L5.11941 29.1183C4.78708 29.4506 4.35386 29.6147 3.92058 29.6147Z" fill="#232426"/>
<path d="M78.1129 33.0052C77.6796 33.0052 77.2464 32.8412 76.914 32.5088C76.2536 31.8484 76.2536 30.7715 76.914 30.1111L83.7119 23.3131C84.3724 22.6527 85.4492 22.6527 86.1097 23.3131C86.7701 23.9736 86.7701 25.0505 86.1097 25.7109L79.3118 32.5088C78.9795 32.8412 78.5461 33.0052 78.1129 33.0052Z" fill="#232426"/>
<path d="M88.3013 29.6147C87.8681 29.6147 87.4348 29.4506 87.1025 29.1183L80.3045 22.3204C79.6441 21.6599 79.6441 20.583 80.3045 19.9226C80.965 19.2621 82.042 19.2621 82.7024 19.9226L89.5003 26.7205C90.1607 27.3809 90.1607 28.4578 89.5003 29.1183C89.1722 29.4506 88.7346 29.6147 88.3013 29.6147Z" fill="#232426"/>
<path d="M46.0878 63.7936C45.9742 63.7936 45.8648 63.781 45.7513 63.7599C45.2381 63.6548 44.8005 63.3224 44.5692 62.8513L34.4439 42.4197C34.0274 41.5784 34.3723 40.5646 35.2094 40.1481C36.0508 39.7316 37.0688 40.0766 37.4811 40.9137L46.6347 59.385L55.1026 52.0781C55.8135 51.4639 56.882 51.5481 57.4961 52.2548C58.1061 52.9657 58.0304 54.0342 57.3195 54.6484L47.1941 63.3813C46.887 63.6506 46.4917 63.7936 46.0878 63.7936Z" fill="#232426"/>
<path d="M78.3274 100.446C66.9527 100.446 57.7023 91.1913 57.7023 79.8208C57.7023 68.4461 66.9569 59.1957 78.3274 59.1957C89.7021 59.1957 98.9525 68.4503 98.9525 79.8208C98.9525 91.1913 89.6979 100.446 78.3274 100.446ZM78.3274 62.5862C68.8246 62.5862 61.0928 70.318 61.0928 79.8208C61.0928 89.3236 68.8246 97.0554 78.3274 97.0554C87.8302 97.0554 95.5619 89.3236 95.5619 79.8208C95.5619 70.318 87.8302 62.5862 78.3274 62.5862Z" fill="#232426"/>
<path d="M106.306 108.182C105.873 108.182 105.439 108.018 105.107 107.686L91.1535 93.7322C90.4931 93.0717 90.4931 91.9948 91.1535 91.3344C91.814 90.6739 92.8909 90.6739 93.5513 91.3344L107.505 105.288C108.165 105.948 108.165 107.025 107.505 107.686C107.177 108.018 106.743 108.182 106.306 108.182Z" fill="#232426"/>
</svg>
