<svg width="134" height="98" viewBox="0 0 134 98" fill="none" xmlns="http://www.w3.org/2000/svg">
<path d="M111.5 87C110.67 87 110 86.2906 110 85.4118V43.5881C110 42.7093 110.674 42 111.5 42C112.33 42 113 42.7133 113 43.5881V85.4118C113 86.2906 112.33 87 111.5 87Z" fill="#232426"/>
<path d="M13.5676 87C12.7002 87 12 86.2977 12 85.4275V29.7285C12 24.9175 15.9015 21 20.7017 21H90.4324C91.2998 21 92 21.7062 92 22.5725C92 23.4426 91.2959 24.1449 90.4324 24.1449H20.7017C17.6326 24.1449 15.1352 26.6499 15.1352 29.7246V85.4236C15.1352 86.2976 14.4351 87 13.5676 87Z" fill="#232426"/>
<path d="M113.133 98H11.8708C5.32569 98 0 92.4527 0 85.6353C0 84.7304 0.70517 84 1.57006 84H45.7379C47.191 84 48.5273 84.8846 49.1429 86.2562C49.2442 86.4794 49.4624 86.6255 49.7001 86.6255H75.2221C75.4598 86.6255 75.6818 86.4794 75.7831 86.2562C76.3987 84.8846 77.735 84 79.1881 84H123.43C124.299 84 125 84.7345 125 85.6353C125.004 92.4527 119.678 98 113.133 98ZM3.28422 87.2707C4.02834 91.5072 7.597 94.7293 11.8747 94.7293H113.137C117.415 94.7293 120.983 91.5072 121.727 87.2707H79.192C78.9544 87.2707 78.7323 87.4168 78.6311 87.64C78.0155 89.0116 76.6792 89.8962 75.226 89.8962H49.704C48.2508 89.8962 46.9145 89.0116 46.2989 87.64C46.1977 87.4127 45.9794 87.2707 45.7379 87.2707H3.28422Z" fill="#232426"/>
<path d="M111.5 45C99.0938 45 89 34.9063 89 22.5C89 10.0937 99.0938 0 111.5 0C123.906 0 134 10.0937 134 22.5C134 34.9063 123.906 45 111.5 45ZM111.5 3.13267C100.823 3.13267 92.1327 11.8194 92.1327 22.5C92.1327 33.1767 100.819 41.8673 111.5 41.8673C122.177 41.8673 130.867 33.1806 130.867 22.5C130.867 11.8194 122.181 3.13267 111.5 3.13267Z" fill="#232426"/>
<path d="M67.5699 43C67.4626 43 67.3512 42.9879 67.2399 42.9638C66.3731 42.7828 65.8165 41.9221 65.9954 41.0453L67.5023 33.733L60.2779 32.2086C59.4111 32.0277 58.8545 31.1669 59.0335 30.2901C59.2124 29.4133 60.0672 28.8502 60.93 29.0352L69.7249 30.8894C70.1423 30.9779 70.5082 31.2273 70.7388 31.5892C70.9733 31.9472 71.0529 32.3896 70.9654 32.8079L69.1324 41.7049C68.9774 42.4731 68.3094 43 67.5699 43Z" fill="#232426"/>
<path d="M33.5682 58C33.0597 58 32.559 57.7481 32.2562 57.2838C31.7826 56.5518 31.9844 55.568 32.7064 55.0879L68.5778 31.2597C69.3037 30.7796 70.2702 30.9842 70.7438 31.7162C71.2174 32.4482 71.0156 33.432 70.2936 33.9121L34.4221 57.7403C34.1582 57.9134 33.8632 58 33.5682 58Z" fill="#232426"/>
<path d="M47.4522 80H33.5478C32.6913 80 32 79.3048 32 78.4521V64.5479C32 63.6914 32.6951 63 33.5478 63H47.4522C48.3087 63 49 63.6952 49 64.5479V78.4521C49.0038 79.3048 48.3087 80 47.4522 80ZM35.0957 76.9042H45.9042V66.0958H35.0957V76.9042Z" fill="#232426"/>
<path d="M68.4521 80H54.5479C53.6914 80 53 79.2963 53 78.4332V53.5668C53 52.6998 53.6952 52 54.5479 52H68.4521C69.3086 52 70 52.6998 70 53.5668V78.4332C70 79.2963 69.3086 80 68.4521 80ZM56.0958 76.8664H66.9042V55.1336H56.0958V76.8664Z" fill="#232426"/>
<path d="M90.361 80H75.639C74.732 80 74 79.305 74 78.4526V42.5474C74 41.6912 74.7361 41 75.639 41H90.361C91.268 41 92 41.6912 92 42.5474V78.4526C92 79.305 91.268 80 90.361 80ZM77.2779 76.9052H88.7221V44.0948H77.2779V76.9052Z" fill="#232426"/>
<path d="M110.266 34H112.761V29.3121H118.102V27.8419H112.761V25.8447H118.102V24.3467H113.466L120 14H117.126L113.927 19.6033C113.032 21.3232 112.517 22.2663 111.595 23.8474H111.459C110.592 22.2663 110.077 21.3509 109.128 19.6033L105.901 14H103L109.561 24.3467H104.898V25.8447H110.266V27.8419H104.898V29.3121H110.266V34Z" fill="black"/>
</svg>
