<svg width="55" height="98" viewBox="0 0 55 98" fill="none" xmlns="http://www.w3.org/2000/svg">
<path fill-rule="evenodd" clip-rule="evenodd" d="M9.38658 1.53254C9.3866 1.53256 9.38657 1.53253 9.38658 1.53254L28.638 19.7368C28.649 19.7472 28.6598 19.7577 28.6704 19.7683C28.9869 20.0828 29.2026 20.5333 29.2029 21.045C29.2029 21.0454 29.2029 21.0458 29.2029 21.0462L29.2553 95.3228C29.2557 95.8012 29.0647 96.2601 28.7245 96.5985C28.3843 96.9369 27.9227 97.127 27.4415 97.127H27.4362C27.4205 97.1274 27.4048 97.1276 27.3891 97.1276C27.3805 97.1276 27.3494 97.1278 27.3109 97.127C25.8744 97.1197 24.4138 96.5583 23.2886 95.349C23.2885 95.3489 23.2885 95.3488 23.2884 95.3487L1.4777 71.9137C0.527885 70.8932 0 69.5536 0 68.163V5.5342C0 0.679398 5.84841 -1.81336 9.38658 1.53254ZM4.14065 69.4649L25.6256 92.55L25.5758 21.8181L6.88613 4.14512C5.65794 2.98365 3.62772 3.84902 3.62772 5.5342V68.163C3.62772 68.6457 3.81105 69.1108 4.14065 69.4649Z" fill="black"/>
<path d="M26.9694 21.5974L46.3082 3.37382C48.7023 1.11772 52.6596 2.7986 52.6596 6.07207V68.7671C52.6596 69.7047 52.3024 70.608 51.6597 71.2961L29.7492 94.7561C28.9734 95.5871 27.9884 95.9563 27.0202 95.9569C27.0028 95.9575 26.9849 95.9575 26.9675 95.9575C26.9502 95.9569 26.9323 95.9569 26.9149 95.9569L26.9675 21.6005C26.9682 21.5993 26.9688 21.598 26.9694 21.5974Z" fill="black"/>
<path fill-rule="evenodd" clip-rule="evenodd" d="M51.3723 5.53424C51.3723 3.84905 49.3421 2.98363 48.1139 4.1451L29.4243 21.8187L29.3744 92.55L50.8594 69.465C51.189 69.1108 51.3723 68.6457 51.3723 68.163V5.53424ZM45.6135 1.53255C49.1516 -1.81338 55 0.679425 55 5.53424V68.163C55 69.5537 54.4721 70.8932 53.5223 71.9138L31.7116 95.3487C31.7116 95.3488 31.7115 95.3489 31.7114 95.349C30.5862 96.5583 29.1256 97.1198 27.689 97.127C27.654 97.1277 27.6252 97.1277 27.6138 97.1277H27.6109C27.5952 97.1277 27.5795 97.1275 27.5638 97.127H27.5586C27.0773 97.127 26.6157 96.9369 26.2755 96.5985C25.9353 96.2601 25.7444 95.8012 25.7447 95.3228L25.7971 21.045C25.7973 20.7655 25.8628 20.4899 25.9886 20.2399L25.9893 20.2384L25.9914 20.2343C25.9922 20.2327 25.9934 20.2304 25.9947 20.2278C25.9961 20.225 25.9978 20.2218 25.9996 20.2183C26.0063 20.2055 26.0194 20.1805 26.0371 20.1498L26.0388 20.1468C26.0603 20.1094 26.1571 19.9404 26.3302 19.7683C26.3409 19.7577 26.3516 19.7472 26.3626 19.7369L45.6135 1.53255C45.6135 1.53254 45.6134 1.53256 45.6135 1.53255Z" fill="black"/>
</svg>
