<svg width="93" height="93" viewBox="0 0 93 93" fill="none" xmlns="http://www.w3.org/2000/svg">
<g clip-path="url(#clip0)">
<path d="M48.99 76.9802L53.85 72.1302V65.2702L72.54 46.5802L75.98 43.1502L72.54 39.7202L53.85 21.0102L48.99 16.1602V76.9802ZM53.85 58.3902V27.8802L69.11 43.1402L53.85 58.3902Z" fill="#2B2B2B"/>
<path d="M39.29 21.0102V65.2602L20.59 46.5702L17.17 50.0002L39.29 72.1202L44.14 76.9802V16.1602L39.29 21.0102Z" fill="#2B2B2B"/>
<path d="M46.57 86.27L6.87 46.57L46.57 6.86V0L0 46.57L46.57 93.13V86.27Z" fill="#2B2B2B"/>
<path d="M46.5699 0V6.87L86.2699 46.57L46.5699 86.27V93.13L93.1299 46.57L46.5699 0Z" fill="#2B2B2B"/>
</g>
<defs>
<clipPath id="clip0">
<rect width="93" height="93" fill="white"/>
</clipPath>
</defs>
</svg>
