<svg width="197" height="128" viewBox="0 0 197 128" fill="none" xmlns="http://www.w3.org/2000/svg">
<path d="M98.5033 51.4695C90.1221 51.4695 83.3008 44.6482 83.3008 36.267C83.3008 27.8858 90.1221 21.0645 98.5033 21.0645C106.885 21.0645 113.706 27.8858 113.706 36.267C113.706 44.6482 106.885 51.4695 98.5033 51.4695ZM98.5033 26.2172C92.967 26.2172 88.4599 30.7243 88.4599 36.267C88.4599 41.8097 92.967 46.3168 98.5033 46.3168C104.04 46.3168 108.547 41.8097 108.547 36.267C108.547 30.7243 104.046 26.2172 98.5033 26.2172Z" fill="#2D5DA5"/>
<path d="M109.851 127.994H87.1494C83.7611 127.994 80.7308 126.421 78.7554 123.966C77.0804 125.84 74.7725 127.105 72.1834 127.348C68.2772 127.719 64.5565 125.884 62.4532 122.554C61.3856 120.866 60.823 118.967 60.823 117.049V98.2986C60.823 96.873 61.9801 95.7222 63.3994 95.7222C64.825 95.7222 65.9758 96.873 65.9758 98.2986V117.049C65.9758 118.002 66.257 118.929 66.8068 119.805C67.8681 121.48 69.7348 122.407 71.6911 122.221C74.3122 121.972 76.3708 119.555 76.3708 116.717C76.3708 115.291 77.5279 114.14 78.9471 114.14C80.3664 114.14 81.5235 115.298 81.5235 116.717V117.215C81.5235 120.316 84.0488 122.841 87.1494 122.841H109.851C112.951 122.841 115.477 120.316 115.477 117.215V116.742C115.477 115.323 116.627 114.166 118.047 114.166H118.053C119.472 114.166 120.623 115.317 120.629 116.736C120.642 119.562 122.694 121.972 125.303 122.221C127.24 122.407 129.119 121.486 130.181 119.817C130.737 118.948 131.018 118.015 131.018 117.056V91.132C131.018 89.7064 132.175 88.5557 133.594 88.5557C135.02 88.5557 136.171 89.7064 136.171 91.132V117.049C136.171 118.98 135.602 120.898 134.528 122.579C132.418 125.891 128.71 127.719 124.81 127.348C122.228 127.099 119.92 125.84 118.245 123.966C116.276 126.421 113.246 127.994 109.851 127.994Z" fill="#2D5DA5"/>
<path d="M124.893 66.6915C123.474 66.6915 122.324 65.5472 122.317 64.1279C122.189 63.4247 119.856 61.6474 117.305 61.6474H79.7015C77.2274 61.6474 74.9004 63.3991 74.7597 64.0896C74.7597 65.5152 73.609 66.6468 72.1833 66.6468C70.7577 66.6468 69.6069 65.4768 69.6069 64.0512C69.6069 59.7935 75.0346 56.4883 79.7015 56.4883H117.305C122.004 56.4883 127.47 59.819 127.47 64.1087C127.47 65.5408 126.319 66.6915 124.893 66.6915Z" fill="#2D5DA5"/>
<path d="M78.9472 118.525C77.5215 118.525 76.3708 117.374 76.3708 115.949V84.7316C76.3708 83.306 77.5279 82.1553 78.9472 82.1553C80.3664 82.1553 81.5236 83.306 81.5236 84.7316V115.949C81.5236 117.374 80.3728 118.525 78.9472 118.525Z" fill="#2D5DA5"/>
<path d="M118.059 118.334C116.634 118.334 115.483 117.177 115.483 115.758V86.5607C115.483 85.1351 116.64 83.9844 118.059 83.9844C119.479 83.9844 120.636 85.1415 120.636 86.5607V115.758C120.636 117.177 119.479 118.334 118.059 118.334Z" fill="#2D5DA5"/>
<path d="M32.9942 71.07C25.3034 71.07 19.0383 64.8113 19.0383 57.1141C19.0383 49.4169 25.297 43.1582 32.9942 43.1582C40.6914 43.1582 46.9501 49.4169 46.9501 57.1141C46.9501 64.8049 40.685 71.07 32.9942 71.07ZM32.9942 48.311C28.1419 48.311 24.1975 52.2554 24.1975 57.1077C24.1975 61.96 28.1419 65.9045 32.9942 65.9045C37.8465 65.9045 41.791 61.96 41.791 57.1077C41.791 52.2554 37.8465 48.311 32.9942 48.311Z" fill="#2D5DA5"/>
<path d="M55.1971 127.993H10.7786C4.83309 127.993 0 123.154 0 117.215V91.1313C0 89.3093 0.319637 87.5001 0.94615 85.7421C3.22205 79.3683 9.28908 75.085 16.0465 75.085H49.9356C56.693 75.085 62.76 79.3682 65.0359 85.7357C65.6624 87.4873 65.9821 89.303 65.9821 91.125V117.208C65.9821 123.16 61.1426 127.993 55.1971 127.993ZM16.0465 80.2441C11.4627 80.2441 7.34559 83.1529 5.79849 87.4746C5.37015 88.6764 5.15279 89.9039 5.15279 91.1313V117.215C5.15279 120.315 7.67797 122.841 10.7786 122.841H55.1971C58.2977 122.841 60.8229 120.315 60.8229 117.215V91.1313C60.8229 89.8975 60.6055 88.67 60.1772 87.4746C58.6301 83.1465 54.5131 80.2377 49.9293 80.2377H16.0465V80.2441Z" fill="#2D5DA5"/>
<path d="M16.0465 127.348C14.6208 127.348 13.4701 126.19 13.4701 124.771V98.675C13.4701 97.2494 14.6272 96.0986 16.0465 96.0986C17.4721 96.0986 18.6228 97.2558 18.6228 98.675V124.778C18.6228 126.197 17.4721 127.348 16.0465 127.348Z" fill="#2D5DA5"/>
<path d="M49.9357 127.367C48.5101 127.367 47.3594 126.21 47.3594 124.79V98.675C47.3594 97.2494 48.5164 96.0986 49.9357 96.0986C51.3549 96.0986 52.5121 97.2558 52.5121 98.675V124.79C52.5121 126.21 51.3613 127.367 49.9357 127.367Z" fill="#2D5DA5"/>
<path d="M164.012 71.07C156.321 71.07 150.056 64.8113 150.056 57.1141C150.056 49.4169 156.315 43.1582 164.012 43.1582C171.709 43.1582 177.968 49.4169 177.968 57.1141C177.968 64.8049 171.709 71.07 164.012 71.07ZM164.012 48.311C159.16 48.311 155.215 52.2554 155.215 57.1077C155.215 61.96 159.16 65.9045 164.012 65.9045C168.864 65.9045 172.809 61.96 172.809 57.1077C172.809 52.2554 168.864 48.311 164.012 48.311Z" fill="#2D5DA5"/>
<path d="M186.221 127.993H141.803C135.857 127.993 131.024 123.154 131.024 117.215V91.6939C131.024 90.2683 132.181 89.1176 133.601 89.1176C135.026 89.1176 136.177 90.2683 136.177 91.6939V117.215C136.177 120.315 138.702 122.841 141.803 122.841H186.221C189.322 122.841 191.847 120.315 191.847 117.215V91.1313C191.847 89.9039 191.63 88.67 191.202 87.4746C189.654 83.1465 185.537 80.2377 180.96 80.2377H147.071C145.6 80.2377 144.181 80.5254 142.845 81.088C141.528 81.6442 140.019 81.0304 139.463 79.7199C138.907 78.4093 139.521 76.8942 140.831 76.3444C142.807 75.5069 144.903 75.085 147.064 75.085H180.954C187.705 75.085 193.778 79.3682 196.054 85.7357C196.68 87.4937 197 89.3094 197 91.125V117.208C197 123.16 192.167 127.993 186.221 127.993Z" fill="#2D5DA5"/>
<path d="M147.071 127.347C145.645 127.347 144.494 126.19 144.494 124.771V103.629C144.494 102.203 145.651 101.053 147.071 101.053C148.49 101.053 149.647 102.203 149.647 103.629V124.771C149.647 126.196 148.49 127.347 147.071 127.347Z" fill="#2D5DA5"/>
<path d="M180.96 127.367C179.534 127.367 178.384 126.21 178.384 124.79V98.675C178.384 97.2494 179.541 96.0986 180.96 96.0986C182.386 96.0986 183.536 97.2558 183.536 98.675V124.79C183.536 126.21 182.379 127.367 180.96 127.367Z" fill="#2D5DA5"/>
<path d="M98.7653 92.1486C73.3595 92.1486 52.691 71.48 52.691 46.0743C52.691 20.6685 73.3595 0 98.7653 0C124.171 0 144.84 20.6685 144.84 46.0743C144.84 71.4736 124.171 92.1486 98.7653 92.1486ZM98.7653 5.15275C76.2044 5.15275 57.8437 23.507 57.8437 46.0743C57.8437 68.6351 76.2044 86.9958 98.7653 86.9958C121.326 86.9958 139.687 68.6415 139.687 46.0743C139.687 23.507 121.326 5.15275 98.7653 5.15275Z" fill="#2D5DA5"/>
<path d="M161.065 117.497C158.629 117.497 156.334 116.551 154.614 114.825L122.65 82.8596C122.1 82.3098 121.825 81.5363 121.908 80.7627C121.991 79.9892 122.426 79.2923 123.078 78.8704C126.415 76.7351 129.209 73.9734 131.382 70.6554L131.574 70.3613C132.002 69.7156 132.693 69.2937 133.466 69.217C134.234 69.1403 135.001 69.4088 135.551 69.9586L167.515 101.924C171.076 105.484 171.076 111.27 167.515 114.831C165.796 116.551 163.507 117.497 161.065 117.497ZM128.454 81.3765L158.265 111.181C159.767 112.683 162.382 112.683 163.878 111.181C165.425 109.633 165.425 107.115 163.878 105.568L134.067 75.757C132.424 77.8539 130.551 79.7335 128.454 81.3765Z" fill="#2D5DA5"/>
</svg>
