<svg width="122" height="130" viewBox="0 0 122 130" fill="none" xmlns="http://www.w3.org/2000/svg">
<path d="M113.053 129.753H8.9358C7.67463 129.753 6.65649 128.73 6.65649 127.474V58.6471C6.65649 57.3859 7.68029 56.368 8.9358 56.368H52.0701C53.3313 56.368 54.3491 57.3916 54.3491 58.6471C54.3491 59.9082 53.3256 60.9262 52.0701 60.9262H11.2148V125.189H110.768V60.9206H69.3193C68.0581 60.9206 67.04 59.8969 67.04 58.6414C67.04 57.3802 68.0638 56.3623 69.3193 56.3623H113.047C114.308 56.3623 115.326 57.3859 115.326 58.6414V127.469C115.338 128.73 114.314 129.753 113.053 129.753Z" fill="#2D5DA5"/>
<path d="M119.715 60.9213H69.3248C68.0637 60.9213 67.0458 59.8977 67.0458 58.6422C67.0458 57.381 68.0693 56.3631 69.3248 56.3631H117.436V37.355H4.55834V56.3631H52.5733C53.8344 56.3631 54.8526 57.3867 54.8526 58.6422C54.8526 59.9033 53.8288 60.9213 52.5733 60.9213H2.27931C1.01814 60.9213 0 59.8977 0 58.6422V35.0702C0 33.809 1.0238 32.791 2.27931 32.791H119.721C120.982 32.791 122 33.8147 122 35.0702V58.6422C122 59.9033 120.976 60.9213 119.715 60.9213Z" fill="#2D5DA5"/>
<path d="M53.0654 129.753C51.8042 129.753 50.7863 128.73 50.7863 127.474V35.0751C50.7863 33.8139 51.8098 32.7959 53.0654 32.7959C54.3209 32.7959 55.3447 33.8196 55.3447 35.0751V127.474C55.3447 128.73 54.3265 129.753 53.0654 129.753Z" fill="#2D5DA5"/>
<path d="M68.9291 129.753C67.6679 129.753 66.6498 128.73 66.6498 127.474V35.0751C66.6498 33.8139 67.6736 32.7959 68.9291 32.7959C70.1846 32.7959 71.2081 33.8196 71.2081 35.0751V127.474C71.2081 128.73 70.1903 129.753 68.9291 129.753Z" fill="#2D5DA5"/>
<path d="M61.0002 37.3488H43.926C34.0063 37.3488 25.9362 29.2784 25.9362 19.3587V17.99C25.9362 8.07032 34.0063 0 43.926 0H45.2949C55.2146 0 63.285 8.07032 63.285 17.99V35.0639C63.2793 36.3308 62.2557 37.3488 61.0002 37.3488ZM43.9205 4.5696C36.5175 4.5696 30.4943 10.5927 30.4943 17.9957V19.3643C30.4943 26.7674 36.5175 32.7904 43.9205 32.7904H58.7153V17.9957C58.7153 10.5927 52.6921 4.5696 45.2891 4.5696H43.9205Z" fill="#2D5DA5"/>
<path d="M78.074 37.349H61.0001C59.739 37.349 58.7208 36.3253 58.7208 35.0698V17.9959C58.7208 8.07618 66.7912 0.00585938 76.7109 0.00585938H78.0795C87.9992 0.00585938 96.0696 8.07618 96.0696 17.9959V19.3645C96.0583 29.2842 87.9937 37.349 78.074 37.349ZM63.2792 32.7906H78.074C85.477 32.7906 91.4999 26.7675 91.4999 19.3645V17.9959C91.4999 10.5929 85.477 4.5698 78.074 4.5698H76.7054C69.3024 4.5698 63.2792 10.5929 63.2792 17.9959V32.7906Z" fill="#2D5DA5"/>
</svg>
