<svg width="26" height="26" viewBox="0 0 26 26" fill="none" xmlns="http://www.w3.org/2000/svg">
<path d="M11.9365 19.1822C11.6481 19.1822 11.3597 19.0723 11.14 18.8521C10.7001 18.4121 10.7001 17.699 11.14 17.259L15.3986 13.0004L11.14 8.74184C10.7001 8.30189 10.7001 7.58875 11.14 7.1488C11.58 6.70886 12.2931 6.70886 12.7336 7.1488L17.7887 12.2039C18 12.4152 18.1188 12.7019 18.1188 13.0004C18.1188 13.299 18 13.5857 17.7887 13.797L12.7336 18.8521C12.5134 19.0718 12.2249 19.1822 11.9365 19.1822Z" fill="white"/>
<path d="M24.9776 7.93925C24.3225 6.39072 23.3857 5.00104 22.1926 3.80739C20.9995 2.61431 19.6093 1.67697 18.0607 1.0224C16.457 0.344182 14.7541 0 13 0C11.2459 0 9.54298 0.344182 7.93925 1.0224C6.39072 1.67753 5.00104 2.61431 3.80739 3.80739C2.61431 5.00048 1.67696 6.39072 1.0224 7.93925C0.34418 9.54298 0 11.2459 0 13C0 14.7541 0.34418 16.457 1.0224 18.0608C1.67753 19.6093 2.61431 20.999 3.80739 22.1926C5.00048 23.3857 6.39072 24.323 7.93925 24.9776C9.54298 25.6558 11.2459 26 13 26C14.7541 26 16.457 25.6558 18.0607 24.9776C19.6093 24.3225 20.999 23.3857 22.1926 22.1926C23.3857 20.9995 24.323 19.6093 24.9776 18.0608C25.6558 16.457 26 14.7541 26 13C26 11.2464 25.6558 9.54355 24.9776 7.93925ZM12.9994 24.029C6.9084 24.029 1.97101 19.091 1.97101 13.0006C1.97101 6.91009 6.90896 1.97214 12.9994 1.97214C19.0899 1.97214 24.0279 6.90953 24.0279 13.0006C24.0279 19.0916 19.0905 24.029 12.9994 24.029Z" fill="white"/>
</svg>
