<svg width="94" height="122" viewBox="0 0 94 122" fill="none" xmlns="http://www.w3.org/2000/svg">
<g clip-path="url(#clip0)">
<path d="M48.99 76.98L53.85 72.13V65.27L72.54 46.58L75.98 43.15L72.54 39.72L53.85 21.01L48.99 16.16V76.98ZM53.85 58.39V27.88L69.11 43.14L53.85 58.39Z" fill="#1D2A73"/>
<path d="M39.29 21.01V65.26L20.59 46.57L17.17 50L39.29 72.12L44.14 76.98V16.16L39.29 21.01Z" fill="#1D2A73"/>
<path d="M46.57 86.27L6.87 46.57L46.57 6.86V0L0 46.57L46.57 93.13V86.27Z" fill="#1D2A73"/>
<path d="M46.5699 0V6.87L86.2699 46.57L46.5699 86.27V93.13L93.1299 46.57L46.5699 0Z" fill="#1D2A73"/>
<path d="M19.46 105.66V105.21H28.13V105.66H27.6C27.12 105.66 26.73 105.74 26.44 105.91C26.24 106.02 26.08 106.22 25.96 106.49C25.87 106.68 25.83 107.19 25.83 108.01V115.99C25.83 117.55 25.68 118.69 25.36 119.4C25.05 120.11 24.49 120.7 23.69 121.18C22.9 121.66 21.93 121.89 20.81 121.89C19.44 121.89 18.33 121.53 17.48 120.81C16.64 120.09 16.21 119.29 16.21 118.42C16.21 117.86 16.38 117.41 16.73 117.05C17.08 116.7 17.5 116.53 18 116.53C18.49 116.53 18.9 116.69 19.23 117C19.56 117.31 19.73 117.7 19.73 118.15C19.73 118.37 19.7 118.57 19.65 118.74C19.62 118.82 19.49 119.02 19.27 119.35C19.05 119.68 18.94 119.91 18.94 120.04C18.94 120.25 19.04 120.43 19.25 120.58C19.56 120.81 19.95 120.92 20.44 120.92C20.79 120.92 21.07 120.83 21.3 120.66C21.52 120.48 21.68 120.21 21.77 119.83C21.86 119.46 21.91 118.42 21.91 116.72V108C21.91 107.17 21.86 106.64 21.77 106.43C21.68 106.22 21.5 106.04 21.23 105.88C20.96 105.72 20.6 105.65 20.14 105.65H19.46V105.66Z" fill="#1D2A73"/>
<path d="M36.4 114.13V118.65C36.4 119.53 36.46 120.09 36.56 120.31C36.67 120.54 36.86 120.72 37.14 120.86C37.42 121 37.93 121.07 38.66 121.07V121.52H30.38V121.07C31.13 121.07 31.64 121 31.91 120.86C32.18 120.72 32.37 120.54 32.47 120.31C32.58 120.08 32.63 119.53 32.63 118.65V108.07C32.63 107.19 32.58 106.63 32.47 106.41C32.36 106.18 32.17 106 31.9 105.86C31.63 105.73 31.12 105.66 30.37 105.66V105.21H37.48C39.82 105.21 41.5 105.63 42.52 106.46C43.54 107.29 44.05 108.34 44.05 109.59C44.05 110.65 43.72 111.55 43.06 112.31C42.4 113.06 41.5 113.58 40.34 113.85C39.57 114.04 38.26 114.13 36.4 114.13ZM36.4 106.15V113.2C36.67 113.22 36.87 113.22 37 113.22C37.97 113.22 38.73 112.93 39.26 112.35C39.79 111.77 40.05 110.87 40.05 109.65C40.05 108.44 39.79 107.55 39.26 106.99C38.73 106.43 37.94 106.15 36.89 106.15H36.4Z" fill="#1D2A73"/>
<path d="M55.8699 112.87C57.4199 113.23 58.5099 113.67 59.1299 114.18C60.0299 114.91 60.4799 115.86 60.4799 117.02C60.4799 118.25 59.9799 119.26 58.9999 120.06C57.7899 121.03 56.0299 121.51 53.7199 121.51H45.4399V121.06C46.1899 121.06 46.6999 120.99 46.9699 120.85C47.2399 120.71 47.4299 120.53 47.5399 120.3C47.6499 120.07 47.6999 119.52 47.6999 118.64V108.06C47.6999 107.18 47.6399 106.62 47.5399 106.39C47.4299 106.16 47.2399 105.98 46.9699 105.84C46.6999 105.7 46.1899 105.64 45.4399 105.64V105.19H53.2599C55.1299 105.19 56.4499 105.36 57.2299 105.69C58.0099 106.02 58.6199 106.52 59.0699 107.18C59.5199 107.84 59.7399 108.54 59.7399 109.29C59.7399 110.08 59.4599 110.77 58.8899 111.39C58.3099 112.02 57.3099 112.51 55.8699 112.87ZM51.4999 113.49V118.72L51.4899 119.32C51.4899 119.75 51.5999 120.08 51.8199 120.3C52.0399 120.52 52.3699 120.63 52.7999 120.63C53.4399 120.63 54.0299 120.49 54.5699 120.2C55.1099 119.92 55.5299 119.5 55.8099 118.96C56.0999 118.42 56.2399 117.82 56.2399 117.15C56.2399 116.39 56.0599 115.71 55.7099 115.1C55.3599 114.49 54.8699 114.07 54.2599 113.83C53.6499 113.59 52.7199 113.48 51.4999 113.49ZM51.4999 112.55C52.6399 112.55 53.4799 112.42 54.0199 112.16C54.5599 111.91 54.9799 111.54 55.2699 111.08C55.5599 110.61 55.6999 110.02 55.6999 109.3C55.6999 108.58 55.5599 107.99 55.2699 107.52C54.9799 107.06 54.5799 106.71 54.0499 106.47C53.5199 106.23 52.6699 106.11 51.4999 106.12V112.55Z" fill="#1D2A73"/>
<path d="M71.5899 116.88H65.8299L65.1499 118.47C64.9299 119 64.8099 119.44 64.8099 119.78C64.8099 120.24 64.9899 120.57 65.3599 120.79C65.5799 120.92 66.1099 121.02 66.9599 121.08V121.53H61.5399V121.08C62.1199 120.99 62.5999 120.75 62.9799 120.35C63.3599 119.95 63.8199 119.13 64.3799 117.89L70.2099 104.88H70.4399L76.3199 118.25C76.8799 119.52 77.3399 120.31 77.6999 120.64C77.9699 120.89 78.3599 121.03 78.8599 121.07V121.52H70.9699V121.07H71.2999C71.9299 121.07 72.3799 120.98 72.6399 120.8C72.8099 120.67 72.8999 120.49 72.8999 120.25C72.8999 120.11 72.8799 119.96 72.8299 119.8C72.8099 119.73 72.6899 119.43 72.4699 118.9L71.5899 116.88ZM71.1799 115.99L68.7499 110.37L66.2499 115.99H71.1799Z" fill="#1D2A73"/>
</g>
<defs>
<clipPath id="clip0">
<rect width="93.13" height="121.89" fill="white"/>
</clipPath>
</defs>
</svg>
